# xmcd CD database file
#
# Track frame offsets:
#	150
#	13280
#	25100
#	40974
#	54837
#	68635
#	83339
#	101400
#	114469
#	138972
#	149360
#	162326
#	186842
#	206471
#	224383
#	242976
#	259099
#	279971
#
# Disc length: 4085 seconds
#
# Revision: 0
# Processed by: cddbd v1.5.2PL0 Copyright (c) Steve Scherf et al.
# Submitted via: CDex 1.51
#
DISCID=f70ff312
DTITLE=Various Artist - Jazz On A Summer's Day
DYEAR=2006
DGENRE=Jazz
TTITLE0=Billie Holiday - That Ole Devil Called Love
TTITLE1=Nat King Cole - Nature Boy
TTITLE2=Judy Garland - Fly Me To The Moon
TTITLE3=Miles Davis - Rocker
TTITLE4=Ella Fitzgerald and Louis Armstrong - Dream A Little Dream Of Me
TTITLE5=Astrud Gilberto - The Girl From Ipanema
TTITLE6=Zoe Nicholas - Smile
TTITLE7=Frank Sinatra - I Get A Kick Out Of You
TTITLE8=Dinah Washington and Clifford Brown - I've Got You Under My Skin
TTITLE9=Ray Charles - Hey Now
TTITLE10=Jazz Culture - Misty
TTITLE11=Regina Belle and Steve Cole - Just The Two Of Us
TTITLE12=Al Jarreau - Leon On Me
TTITLE13=Paul Flood - Stay
TTITLE14=Jose Feliciano - You Send Me
TTITLE15=Charlie Parker - I'm In The Moon For Love
TTITLE16=Sundown Park - Shape Of My Heart
TTITLE17=Dee Harrington - Autumn Leaves
EXTD=YEAR: 2006
EXTT0=
EXTT1=
EXTT2=
EXTT3=
EXTT4=
EXTT5=
EXTT6=
EXTT7=
EXTT8=
EXTT9=
EXTT10=
EXTT11=
EXTT12=
EXTT13=
EXTT14=
EXTT15=
EXTT16=
EXTT17=
PLAYORDER=
